<svg width="127" height="64" viewBox="0 0 127 64" fill="none" xmlns="http://www.w3.org/2000/svg">
<path opacity="0.07" d="M126.545 62.8271C86 62.8271 97.9446 62.8271 63 62.8271C28.0554 62.8271 42 62.8271 0 62.8271C0 28.1287 28.3282 0 63.2727 0C98.2173 0 126.545 28.1287 126.545 62.8271Z" fill="#A0AEC0"/>
<path opacity="0.04" d="M117.634 62.8271C90 62.8271 93.296 62.8271 63.2732 62.8271C33.2504 62.8271 39 62.8271 8.91211 62.8271C8.91211 33.0504 33.2504 8.91162 63.2732 8.91162C93.296 8.91162 117.634 33.0504 117.634 62.8271Z" fill="#606873"/>
<path opacity="0.02" d="M105.158 63.273C79.5 63.273 85.1323 63.273 62 63.273C38.8677 63.273 46.5 63.273 21.3887 63.273C21.3887 39.6485 40.1411 20.4971 63.2734 20.4971C86.4057 20.4971 105.158 39.6485 105.158 63.273Z" fill="#202326"/>
</svg>
