<svg width="225" height="210" viewBox="0 0 225 210" fill="none" xmlns="http://www.w3.org/2000/svg">
<path opacity="0.4" d="M114.57 201.155C169.008 201.155 213.139 157.02 213.139 102.578C213.139 48.1347 169.008 4 114.57 4C60.1311 4 16 48.1347 16 102.578C16 157.02 60.1311 201.155 114.57 201.155Z" fill="#ECEFF2"/>
<g clip-path="url(#clip0_255_3607)">
<path d="M140.56 122.071C140.56 134.046 140.74 147.019 138.803 158.883C138.408 161.309 138.262 172.425 134.763 173.111C129.779 174.088 127.412 161.364 126.767 158.523C125.205 151.627 122.935 144.767 121.213 137.954C120.79 136.27 119.527 134.323 119.777 132.473C120.318 128.474 124.67 128.46 127.003 126.215" fill="#C6CED9"/>
<path d="M113.161 125.383C113.161 137.358 113.342 150.331 111.405 162.196C111.009 164.621 110.863 175.737 107.365 176.423C102.381 177.4 100.014 164.677 99.3682 161.835C97.8064 154.94 95.5365 148.079 93.815 141.267C93.3916 139.583 92.1282 137.635 92.3781 135.785C92.9196 131.786 97.2719 131.773 99.6043 129.527" fill="#C6CED9"/>
<path d="M62.8209 140.99C59.0725 145.474 59.003 151.905 60.2595 157.276C61.1827 161.24 62.9389 164.192 64.8339 167.622C65.5489 168.918 67.4717 170.789 67.2565 172.335C67.0969 173.443 65.9793 173.832 64.8895 174.012C63.6192 174.22 57.7883 172.127 55.7475 171.191C54.1231 170.443 53.4845 169.868 52.5752 168.391C51.4368 166.555 44.6965 153.131 43.8774 150.831C43.3082 149.237 43.4679 147.525 43.4679 145.806C43.4679 142.39 43.6206 138.994 43.5998 135.57C45.2033 135.141 47.2024 135.543 48.7782 135.875C52.242 136.617 55.7683 136.984 59.2391 137.67" fill="#C6CED9"/>
<path d="M135.235 43.4207C124.517 29.817 112.724 34.0928 102.839 34.8967C94.4467 35.5828 89.1503 33.9196 84.673 41.2793C80.4109 48.2926 75.4339 64.6685 71.2412 71.4184C67.1665 77.9743 64.0914 81.4947 57.1429 84.9182C45.9184 90.4554 30.3 82.1739 22.0048 91.9592C17.4998 97.2815 14.2789 105.113 13.314 112.355C12.8559 115.813 12.3422 120.567 13.0294 124.053C13.5709 126.825 13.4529 130.13 13.9804 132.556C15.1813 138.058 14.6746 141.856 14.029 146.444C13.321 151.461 20.2139 161.032 21.6161 166.111C24.4136 176.236 28.6757 177.005 33.9096 176.07C35.1313 175.848 36.0129 174.781 35.9643 173.54C35.6172 164.732 31.9382 149.839 34.0901 142.632C34.6731 140.685 35.645 137.539 37.7205 136.492C41.1635 134.746 43.0932 138.079 46.446 139.763C54.3316 143.734 63.897 144.628 72.6364 144.704C86.0266 144.822 99.3267 143.845 111.87 140.248C119.02 138.197 128.773 137.143 134.874 132.895C142.031 127.92 144.002 118.003 145.398 109.874C147.445 97.9676 146.453 84.7935 145.8 72.7559C145.294 63.4418 141.038 49.1935 135.228 43.393L135.235 43.4207Z" fill="#C6CED9"/>
<path d="M24.774 90.1644C22.8095 91.8277 20.0885 92.285 18.0823 94.0037C16.5483 95.3135 14.5838 96.9421 13.9591 98.931C14.6671 98.8617 15.0072 98.3004 15.7153 98.3212C14.6324 99.8874 13.4593 101.363 12.7235 103.145C12.1265 104.586 12.0779 105.972 11.6406 107.365C12.0016 106.353 12.4666 105.549 13.4662 105.099C13.3829 106.242 13.015 107.413 12.7929 108.453C12.9317 107.892 13.2302 107.4 13.5356 106.908C12.7096 109.43 11.231 111.509 11.0714 114.267C10.9187 116.831 10.7798 119.59 10.9673 122.147C11.238 121.426 11.7864 120.851 12.2098 120.22C12.2653 122.674 11.7655 125.064 11.9321 127.573C12.2723 126.97 12.4111 126.263 12.7235 125.633C12.9873 129.687 13.3066 133.554 15.0003 137.379C15.3751 133.45 15.4584 129.909 17.3049 126.326C18.0546 124.87 18.7418 123.394 19.5123 121.953C20.3036 120.477 21.9488 118.592 22.282 116.963" fill="#C6CED9"/>
<path d="M120.748 46.2206C120.679 46.2414 120.616 46.2691 120.554 46.3037C118.95 47.2393 117.09 48.9164 116.653 50.6697C116.465 51.4251 116.604 52.9636 116.222 53.5526C115.119 55.2644 114.633 53.0537 113.987 52.0557C111.384 48.0363 106.344 46.7473 102.11 48.0778C99.8888 48.7778 96.6263 49.6163 95.2588 51.432C92.9403 54.5228 90.7815 56.6227 89.9971 60.6283C88.1715 69.9354 87.9008 80.5107 93.4193 88.4942C94.6688 90.303 96.4736 91.3633 97.9868 92.874C101.881 96.7618 101.694 101.391 100.541 103.56C100.194 104.212 99.2293 104.052 99.1252 103.325C98.9447 102.091 98.5352 100.255 96.6402 98.0716C95.0922 96.2906 92.0865 96.4361 89.9485 95.2164C88.109 94.17 86.0404 93.0057 84.4855 91.4256C83.9371 90.8712 83.0139 91.4464 83.243 92.188C83.3124 92.4166 83.3818 92.6315 83.4304 92.8255C83.7705 94.1076 84.3536 95.3273 84.6105 96.6509C84.9367 98.3488 85.2074 100.192 85.1103 101.987C85.0755 102.604 84.3259 102.902 83.8608 102.493C82.2434 101.058 79.9319 99.0141 78.4256 100.594C77.19 101.89 77.308 104.69 77.1969 106.318C76.8915 110.657 76.9192 114.953 78.1687 119.146C78.9115 121.634 79.675 123.928 81.5492 125.785C85.0964 129.306 90.3025 131.343 94.9395 132.944C98.4172 134.15 103.269 135.023 107.018 134.288C108.871 133.921 110.579 133.595 112.564 133.789C114.605 133.99 116.299 135.279 117.971 136.402C118.263 136.596 118.645 136.561 118.909 136.326C119.957 135.383 120.651 134.191 122.025 133.471C124.483 132.175 127.169 131.308 129.821 130.574C134.006 129.416 139.421 123.013 141.948 114.87C142.968 111.592 143.912 102.244 142.579 102.999C141.184 103.359 140.566 104.828 139.726 105.743C139.122 106.402 138.088 105.584 138.553 104.822C140.018 102.417 140.622 99.4923 140.018 97.0875C139.671 94.856 137.102 95.4312 135.679 95.6877C132.153 96.3322 131.82 97.4687 130.543 98.4458C129.64 99.1319 129.002 100.532 128.502 102.001C128.238 102.777 127.107 102.639 127.037 101.821C126.871 100.012 126.864 98.1825 127.495 96.6509C128.634 93.9066 133.16 90.5039 135.096 88.3625C139.06 83.9827 141.302 76.6299 141.26 70.961C141.226 66.0753 140.122 64.4052 139.324 59.6373C138.845 56.7474 135.804 51.7231 133.764 49.554C130.32 45.9018 126.704 44.4811 120.755 46.2067L120.748 46.2206Z" fill="white"/>
<path d="M29.342 88.6466C24.4413 88.8822 20.0681 86.2072 18.0828 81.6126C14.4732 73.2341 19.4711 64.1071 27.8843 61.3697C32.903 59.7342 37.6024 61.7509 40.4207 66.006C43.1418 70.1294 41.6146 76.5467 37.6788 79.2979C36.5612 80.081 35.5339 80.5037 34.2288 80.6423C32.903 80.7879 29.9598 81.1898 28.6756 80.5384C27.7802 80.081 27.3359 78.9237 28.634 78.6742C28.5923 77.8426 27.4053 77.5099 26.6417 77.6485C24.9202 77.9535 26.7667 81.5779 28.0856 82.0492C30.7511 82.9986 26.9125 82.2779 27.3359 82.5135C33.0835 85.7498 28.7936 84.3153 28.634 85.2024C28.0023 88.6328 28.8839 87.6556 30.8691 87.6903C30.8067 88.2031 30.883 88.7506 31.1329 89.201C31.2509 89.0001 31.6744 88.7575 31.8062 88.508C33.5 90.1297 35.3256 90.8712 36.825 88.6674C36.8319 89.1317 37.061 89.4782 37.2554 89.901C37.7551 89.6099 38.1716 89.0139 38.5534 88.612C39.2406 89.4159 40.3027 90.49 40.8164 88.8892C42.3296 89.797 45.3214 87.8982 46.4182 86.9973C48.2508 85.4796 51.1523 82.3679 50.2222 79.6929C53.0265 77.9812 56.2335 73.241 55.3311 69.6789C55.0673 68.6463 54.4287 67.9325 54.2205 66.893C53.8526 65.0427 54.3663 63.0953 53.922 61.1965C53.4916 61.7509 53.1168 62.3399 52.7975 62.9636C52.2283 61.0024 51.8673 59.4639 50.5831 57.8354C49.3198 56.2345 46.9388 54.1278 45.4325 56.6365C44.419 55.1534 43.4056 53.2823 41.2537 53.5803C41.2329 53.705 41.2259 53.8298 41.2259 53.9545C39.1643 52.3121 36.9499 52.3467 34.6106 51.9379C33.6596 51.7715 29.0366 50.1984 28.2452 51.0439C27.9051 51.4042 28.0717 52.2358 28.1133 52.721C27.3151 51.1201 26.0031 50.9399 24.4552 50.9399C21.8382 50.9399 19.6447 50.5796 19.131 53.4417C17.7427 53.414 16.3405 53.3724 14.9522 53.4209C14.8897 54.4258 15.0008 54.9455 14.5565 55.6455C14.2997 56.0543 13.7027 56.3038 13.4251 56.7889C13.2654 57.0661 13.5916 57.5651 13.4528 57.8077C12.7934 58.9511 10.1764 59.0967 9.82933 60.2956C9.35037 61.9657 12.5712 63.1023 13.6333 63.6359C10.9192 65.7911 7.22626 66.3386 5.22015 69.5195C4.58847 70.5244 4.78978 71.4045 4.30387 72.3678C3.42229 74.1142 4.36634 77.503 6.36551 80.0117C6.18503 81.1552 4.39411 82.1046 4.8106 83.1718C5.25486 84.3222 3.04745 84.939 4.01232 84.1282C3.98456 84.7519 4.19974 88.4318 5.65053 87.4685C5.78242 88.6397 5.56723 89.8109 5.55335 90.9821C5.65053 90.7257 5.83795 90.4762 5.93513 90.2683C5.97678 91.1553 5.83795 92.077 6.21973 92.9086C6.8653 92.479 7.42062 91.6404 7.8857 90.9959C8.18419 93.7402 10.2458 96.6232 12.3005 98.3557C13.0433 98.9794 13.2723 98.8131 13.9387 99.118C14.5565 99.4021 15.1604 99.8318 15.8199 100.137C17.7635 101.045 20.672 99.0418 22.574 98.4735C23.9692 98.0577 25.7463 97.6904 26.725 96.5331C28.0162 95.0085 27.3914 92.9156 27.8149 91.1068" fill="#C6CED9"/>
<path d="M51.888 79.9702C55.1505 80.0395 60.4261 77.2951 61.148 73.8231C60.8773 74.0934 60.5094 74.1974 60.2248 74.4122C60.4192 73.7954 60.8912 73.2202 60.8704 72.5134C60.197 72.4856 59.4682 72.5342 58.8226 72.4579C59.7111 69.7483 59.8847 66.4772 59.5792 63.6498C59.371 61.7093 58.5311 59.8936 58.2256 58.0017C58.1215 58.1195 57.9271 58.2304 57.8022 58.3621C57.4829 57.0731 56.8165 55.5 56.2473 54.3496C56.164 54.6475 55.8863 54.904 55.7822 55.1742C55.1852 54.3218 53.5262 51.0578 52.5683 51.5082C50.7218 49.8034 49.4029 47.5095 47.73 45.6453C47.5773 46.1166 47.501 46.6225 47.4662 47.1215C46.8762 46.574 46.3139 45.9364 45.5643 45.5899C45.3213 45.978 45.363 46.567 45.3421 47.0799C44.5091 46.5809 43.5859 45.4998 42.5169 45.4305C42.4683 45.8879 42.4545 46.3661 42.4822 46.8373C40.4761 45.8186 38.706 44.9177 36.4292 45.0424C36.6999 45.3612 36.8526 45.68 37.0817 46.0126C35.8947 44.2593 31.4799 44.1415 29.7237 44.0583C29.8833 44.4326 30.036 44.9454 30.0985 45.2988C25.6976 45.5691 20.1582 44.294 16.4792 47.2601C17.1456 47.7729 18.0064 48.0016 18.6936 48.4867C17.5066 48.452 15.7226 48.1125 14.6605 48.7847C14.7647 48.8471 14.9035 48.9649 15.077 49.0411C14.5911 49.3737 13.8623 49.4292 13.4249 49.5747C13.8137 49.8034 13.6609 49.9004 13.8414 50.1014C13.418 50.0737 13.0987 50.3855 12.7308 50.441C12.8557 50.6489 12.8488 50.8706 13.0501 51.0924C9.91252 52.4438 8.21184 53.4071 6.17103 56.2138C5.51852 57.1147 4.81049 57.9671 4.28987 58.9234C4.7619 58.9858 5.29639 58.9511 5.79618 58.9858C5.70594 59.5402 5.10203 60.0808 4.86602 60.5589C4.68554 60.9262 4.75495 61.6054 4.31764 62.0697C4.57447 61.9103 4.82437 61.7786 5.06732 61.5915C0.777453 64.5507 1.02041 69.4087 0 74.135C0.624739 73.6776 1.33278 72.9292 1.83951 72.2916C1.64515 73.4489 0.950991 74.4399 0.867692 75.6388C1.01346 75.5002 1.22865 75.3894 1.37443 75.2715C1.24948 76.9694 0.485908 78.5218 0.534499 80.2959C0.708037 79.8038 0.853809 79.2841 1.18006 78.9861C1.41607 80.3305 1.28418 81.8759 1.22171 83.2412C1.33278 82.8739 1.54102 82.5274 1.66597 82.167C1.58267 85.0499 1.53408 88.0992 2.47813 90.8504C2.97098 92.2988 3.88032 93.276 4.56059 94.5719C4.54671 93.6779 4.56059 92.7839 4.53977 91.8899C4.80354 93.5324 5.63653 94.8214 5.94196 96.3668C6.00443 95.9094 6.05996 95.4451 6.09467 94.9877C6.26127 95.3065 6.53893 95.556 6.67082 95.951C6.79577 95.9787 6.74023 95.847 6.86518 95.8817C7.03178 96.2628 7.33027 96.5123 7.5038 96.8935C7.51075 96.4985 7.67734 95.9648 7.72593 95.6114C8.64916 100.213 14.8757 100.31 18.645 100.386C18.7144 99.1943 17.0276 98.4389 16.4514 97.5103C18.3118 98.5498 18.4437 99.0002 19.832 97.7875C20.9357 96.8172 22.4351 96.0896 23.3791 94.9808C24.5383 93.6155 23.7887 93.671 22.5878 93.0958C19.943 91.8276 18.0619 90.6356 15.6393 88.9377C13.8067 87.6487 13.0015 85.5974 12.6891 83.352C12.3906 81.176 12.3559 78.5079 12.5989 76.2833C13.4249 68.6533 18.4923 62.2637 25.6143 59.2283C31.0287 56.9206 37.0331 57.2671 41.4063 61.1341C45.0159 64.322 45.1547 71.1135 43.579 75.5072C42.4267 78.7158 38.2548 81.4809 34.791 81.4879C31.3272 81.5017 28.3631 76.616 32.889 75.6666C33.1667 73.6638 30.279 76.2972 29.8833 76.7684C29.7931 74.2597 29.8625 73.3034 27.2455 74.8142C27.1761 74.5577 26.9123 74.3152 26.8499 74.0796C26.4473 74.5162 26.0932 75.0567 25.6073 75.2646C25.531 76.6853 25.5796 78.1198 25.5865 79.5405C25.5032 79.0069 25.2464 78.8821 24.7952 78.5841C24.7188 79.2078 24.7744 79.8523 24.7535 80.4899C24.4481 80.4275 23.99 80.6147 23.6707 80.5384C23.3236 82.0145 25.5657 82.0769 26.3015 82.86C25.4893 83.0263 24.9757 83.7956 25.6837 84.4124C24.1913 84.946 24.1357 85.9508 25.7184 86.2072C25.3922 88.0437 26.4334 88.4041 27.9189 87.9883C28.4673 89.0902 29.564 89.9911 30.6608 88.9377C31.938 90.7395 32.2712 89.9356 34.194 89.5753C34.3606 90.2059 34.4231 90.996 34.6452 91.682C35.7073 91.8761 37.7897 92.3681 38.4908 91.3425C38.6852 92.4513 39.0392 92.6453 39.7125 93.3938C40.5108 93.0057 40.9967 92.1671 41.6631 91.5919C43.4332 92.5206 43.6553 92.5414 45.0853 91.0098C46.897 93.5462 48.2437 88.8545 49.3543 87.8428C51.8464 85.5835 53.6512 83.7678 51.8672 79.9632L51.888 79.9702Z" fill="white"/>
<path d="M134.472 45.285C135.298 36.8649 136.936 26.0124 132.417 18.3615C129.787 13.9124 125.601 16.5251 123.081 19.8446C120.867 22.7691 111.815 34.6889 109.92 37.8282C108.538 40.1151 112.433 35.4373 112.335 38.0985C112.113 44.2039 125.608 46.1443 130.321 46.6641" fill="#C6CED9"/>
<path d="M133.278 41.4735C133.673 35.3473 134.472 27.4539 132.285 21.889C131.015 18.6527 128.988 20.5515 127.773 22.9701C126.704 25.0977 123.497 28.8399 122.581 31.1269C121.914 32.7901 119.797 34.3147 119.749 36.2482C119.645 40.6904 131.417 43.3377 133.285 41.4735" fill="white"/>
<path d="M86.4704 45.285C85.6443 36.8649 84.0061 26.0124 88.525 18.3615C91.1559 13.9124 95.3416 16.5251 97.8614 19.8446C100.076 22.7691 109.128 34.6889 111.023 37.8282C112.404 40.1151 108.51 35.4373 108.607 38.0985C108.829 44.2039 95.3347 46.1443 90.6214 46.6641" fill="#C6CED9"/>
<path d="M87.6648 41.4735C87.2692 35.3473 86.4709 27.4539 88.6575 21.889C89.9278 18.6527 91.9547 20.5515 93.1695 22.9701C94.2385 25.0977 97.4524 28.8399 98.3617 31.1269C99.0281 32.7901 101.145 34.3147 101.194 36.2482C101.298 40.6904 89.5252 43.3377 87.6579 41.4735" fill="white"/>
<path d="M125.365 84.6826C123.165 87.9675 120.187 87.2398 116.695 87.3992C117.029 90.2128 119.77 90.0812 122.165 89.8594C124.893 89.603 125.511 87.9813 125.372 84.6826H125.365Z" fill="#A0AEC0"/>
<path d="M105.352 63.1023C106.863 63.1023 108.087 61.8798 108.087 60.3718C108.087 58.8638 106.863 57.6414 105.352 57.6414C103.842 57.6414 102.617 58.8638 102.617 60.3718C102.617 61.8798 103.842 63.1023 105.352 63.1023Z" fill="#A0AEC0"/>
<path d="M125.711 59.6373C125.711 61.2797 127.044 62.6172 128.696 62.6172C130.348 62.6172 131.681 61.2867 131.681 59.6373C131.681 57.9879 130.348 56.6573 128.696 56.6573C127.044 56.6573 125.711 57.9879 125.711 59.6373Z" fill="#A0AEC0"/>
<path d="M122.872 67.108C121.31 67.0248 119.707 67.0941 118.166 67.205C117.374 67.2674 116.875 67.2397 117.013 68.2099C117.34 70.5522 121.171 73.3104 122.657 70.5107C123.094 69.686 123.004 68.397 122.879 67.108H122.872Z" fill="#A0AEC0"/>
<path d="M127.634 66.505C127.78 68.5009 126.607 71.467 125.447 73.2133C125.045 73.8163 124.42 74.3845 123.643 74.5509C122.914 74.7033 121.831 74.5509 121.289 74.0242C120.949 73.6915 120.991 73.345 120.748 73.0193C120.415 74.4677 119.832 74.7934 118.152 74.6202C116.826 74.4816 114.931 74.0796 113.904 73.3173C112.439 72.2223 111.113 70.7532 110.724 69.1038C110.599 68.5632 110.407 67.7409 110.148 66.6367C109.989 67.9465 110.405 69.6236 110.822 70.864C111.328 72.3817 112.189 73.4282 113.459 74.5578C114.799 75.7428 116.479 76.9625 118.332 77.2675C119.984 77.5377 122.428 77.7318 123.781 76.7754C125.399 75.625 126.94 73.9479 127.335 72.0283C127.627 70.6146 128.335 68.0573 127.627 66.5119L127.634 66.505Z" fill="#A0AEC0"/>
<path d="M124.733 74.4886C123.823 74.9876 123.636 75.0153 122.789 75.043C122.449 75.0569 120.825 74.4124 120.825 74.4124C120.825 74.4124 119.901 75.2994 118.916 75.237C118.18 75.1885 117.403 74.8282 116.75 74.8143C117.062 75.9924 117.125 77.1844 117.548 78.3348C117.881 79.2426 118.124 80.1713 118.701 80.9544C119.075 81.4672 120.436 81.682 121.075 81.7998C121.852 81.9384 123.185 81.8345 123.796 81.4256C125.087 80.5732 125.302 79.6654 125.364 78.6259C125.406 77.9467 124.747 75.2994 124.733 74.4886Z" fill="#C6CED9"/>
<path d="M198.647 121.122C205.184 125.833 208.492 142.128 197.536 143.245L197.522 143.251C197.892 144.202 198.193 145.254 198.494 146.31C199.192 148.753 199.896 151.217 201.476 152.502C203.36 154.03 205.743 152.715 207.707 151.372C212.846 147.857 216.986 142.394 219.662 136.832C220.546 134.992 221.107 133.148 221.427 131.295L221.499 131.502C223.298 129.913 223.765 128.612 224.081 126.477C224.094 126.513 224.108 126.549 224.122 126.584C224.135 126.461 224.14 126.337 224.145 126.212C224.15 126.087 224.155 125.963 224.169 125.84C224.14 126.061 224.111 126.273 224.081 126.477C223.982 126.205 223.904 125.899 223.825 125.593C223.655 124.93 223.486 124.269 223.11 123.972C222.759 122.783 222.694 121.481 222.629 120.179C222.583 119.262 222.537 118.345 222.391 117.466C222.345 117.665 222.278 117.862 222.209 118.063C222.1 118.38 221.989 118.707 221.952 119.061C221.677 117.925 221.52 116.698 221.36 115.452C221.029 112.867 220.687 110.202 219.263 108.103C219.263 108.934 219.083 109.791 218.67 110.422L218.669 110.413C218.503 108.971 218.268 106.932 216.7 106.481C216.7 106.679 216.64 106.937 216.581 107.196C216.564 107.269 216.547 107.342 216.531 107.414C214.891 105.012 212.855 102.959 210.543 101.816C209.252 101.179 207.874 101.107 206.504 101.036C205.528 100.985 204.555 100.934 203.62 100.68C201.085 99.9891 201.244 98.778 201.441 97.2765C201.527 96.6251 201.62 95.9191 201.503 95.1772C200.656 95.1164 199.797 95.245 198.968 95.3692C198.892 95.3806 198.816 95.392 198.741 95.4032C198.98 93.8747 199.22 90.9905 198.627 89.6614C198.318 89.8334 197.964 89.9108 197.613 89.9877C197.299 90.0564 196.987 90.1247 196.71 90.2595C196.471 89.575 196.351 88.7642 196.371 88C192.85 88.0864 188.536 89.5816 186.626 92.7582C186.617 92.5859 186.532 92.3339 186.44 92.0598C186.326 91.7207 186.2 91.348 186.193 91.0503C185.987 91.2526 185.651 91.3862 185.335 91.5118C185.069 91.6174 184.818 91.7173 184.669 91.8478C184.7 91.6328 184.675 91.3907 184.649 91.1495C184.621 90.8837 184.593 90.6189 184.642 90.3924C180.415 95.4098 177.979 98.9187 178.005 106.229C178.007 106.595 178.005 106.971 178.003 107.354C177.983 110.905 177.96 115.044 181.121 117.294C182.642 118.372 184.445 118.307 186.246 118.242C186.676 118.226 187.105 118.211 187.531 118.211C191.745 118.197 195.179 118.623 198.647 121.122Z" fill="#D9DFE6"/>
<path d="M204.904 143.85C206.9 144.023 209.923 146.123 211.167 147.618C211.9 148.502 212.765 149.559 213.131 150.655C212.692 150.25 212.093 149.844 211.693 149.525C212.046 150.343 213.011 151.679 212.971 152.436C212.692 152.217 212.359 152.064 212.093 151.825C212.259 152.955 212.845 153.971 212.898 155.128C212.898 155.035 212.885 154.948 212.878 154.855C213.683 157.567 214.456 160.71 214.083 163.528C213.723 163.229 213.49 162.757 213.231 162.444C213.896 166.139 214.782 169.542 214.422 173.336C214.396 173.15 214.336 172.918 214.316 172.718C214.136 173.802 214.143 174.892 214.096 175.981C214.03 175.855 213.837 175.656 213.757 175.45C213.577 176.347 213.331 177.237 213.005 178.081C212.911 178.042 212.871 177.962 212.898 177.849C212.099 178.673 211.8 179.982 210.874 180.733C210.668 180.181 210.335 179.643 210.109 179.085C209.483 179.836 209.097 180.892 208.338 181.511C208.252 181.285 207.979 181.085 207.892 180.846C206.787 181.205 205.443 183.464 204.471 184.249C203.952 183.112 203.978 181.537 203.725 180.294C203.219 177.756 202.98 174.639 201.795 172.313" fill="#D9DFE6"/>
<path d="M143.83 177.63C147.831 184.122 149.155 193.1 149.155 200.736C149.155 202.285 149.242 203.866 149.155 205.415C149.102 206.312 148.383 207.973 148.656 208.784C149.282 210.671 152.018 209.256 153.056 208.591C157.017 206.046 158.461 200.936 158.881 196.543C159.307 192.11 163.394 184.574 163.434 180.095C163.44 179.344 160.565 181.178 160.312 180.454C159.699 178.699 156.864 177.61 155.479 176.467" fill="#D9DFE6"/>
<path d="M126.589 158.41C126.809 155.44 128.24 137.424 124.02 170.545C123.7 173.037 124.08 175.556 124.2 178.061C124.386 181.896 124.186 185.837 123.487 189.618C122.808 193.286 121.77 202.756 121.078 203.454C119.76 204.77 120.259 205.581 121.031 205.734C129.452 207.422 130.963 196.184 133.013 193.745C135.356 190.954 142.246 180.633 143.497 176.965C144.269 174.712 139.243 180.873 139.077 178.473C138.897 175.875 135.316 172.632 133.765 170.891" fill="#D9DFE6"/>
<path d="M177.113 184.607C177.439 189.492 178.944 194.529 178.092 199.52C177.692 201.852 176.814 203.66 175.556 205.541C173.951 207.933 175.169 209.488 177.959 208.073C180.608 206.73 183.37 204.983 185.361 202.703C187.384 200.39 188.263 197.606 188.842 194.536C189.408 191.525 189.568 188.661 190.826 185.69C191.345 184.468 192.483 182.913 192.104 181.484C191.325 178.56 185.427 179.636 182.938 179.623" fill="#D9DFE6"/>
<path d="M167.467 136.154C172.606 143.857 180.966 141.464 188.994 140.261C194.446 139.444 200.164 140.115 204.53 143.445C211.22 148.548 212.605 158.025 212.638 166.319C212.651 169.502 213.231 173.13 211.613 175.875C210.402 177.922 208.444 179.769 207.313 181.69C205.176 185.325 208.624 188.143 207.872 191.931C207.047 196.117 204.91 200.723 203.079 204.511C202.806 205.082 201.974 207.023 201.335 207.315C200.73 207.601 199.139 207.302 198.719 206.578C198.02 205.368 199.738 198.736 195.577 190.097C193.74 186.275 192.469 187.053 187.922 182.507C184.374 185.179 181.446 184.242 177.299 185.877C174.217 187.086 158.055 187.272 152.157 184.926C148.303 183.391 144.528 180.753 141.14 178.4C139.383 177.184 136.594 175.071 135.862 172.904C134.564 169.057 135.509 163.268 135.309 159.241C134.97 152.31 139.15 146.249 144.442 141.949C147.138 139.756 149.095 139.989 151.931 138.74" fill="#D9DFE6"/>
<path d="M120.525 136.48C120.545 139.61 117.976 142.488 117.636 145.697C117.244 149.412 118.655 152.449 119.234 155.965C119.427 154.928 119.893 153.891 120.485 153.107C120.618 155.187 120.752 157.394 120.778 159.447C120.865 159.354 120.918 159.248 120.938 159.122C121.251 160.331 121.664 161.62 122.01 162.763C122.462 162.165 122.662 161.428 122.582 160.67C123.294 162.152 124.18 164.205 124.659 165.568C124.699 164.936 124.972 164.185 125.058 163.614C126.143 167.342 126.836 170.625 128.786 173.928C129.811 175.662 131.296 177.224 132.367 178.899C132.374 178.533 132.54 178.101 132.547 177.703C135.323 179.005 140.215 184.388 143.304 181.936C143.75 182.541 144.316 182.793 144.902 183.132C144.922 183.019 144.928 182.906 144.922 182.793C146.18 183.179 150.18 187.086 151.465 187.372C151.465 187.372 153.548 180.248 153.821 177.955C154.201 174.785 155.918 172.054 156.73 168.91C157.589 170.439 157.749 172.333 158.521 173.921C158.774 172.579 159.712 171.409 160.318 170.22C162.049 166.83 162.934 163.202 163.66 159.447C164.578 154.722 165.204 150.828 165.43 146.03C165.623 146.302 166.229 146.635 166.455 146.947C167.933 142.116 166.848 137.975 165.064 133.503C164.671 132.513 164.159 130.459 163.267 129.821C161.696 128.705 157.935 130.386 156.324 130.738C146.093 132.985 135.882 133.516 125.491 133.603" fill="white"/>
<path d="M128.593 104.262C128.366 103.485 127.288 102.847 126.762 102.275C125.451 100.853 124.486 99.1784 123.108 97.7829C122.449 97.1117 121.823 96.4072 121.151 95.7493C120.951 95.5566 120.658 95.2376 120.312 94.8854C119.2 93.7623 117.29 94.3205 116.95 95.8623C116.85 96.3075 116.764 96.7594 116.671 97.1914C115.792 101.265 115.632 105.219 115.439 109.359C115.373 110.728 115.067 112.463 115.439 113.799C115.952 115.633 117.716 117.633 119.413 118.437C120.631 119.015 121.164 118.763 122.269 118.032C123.713 117.068 123.94 116.038 124.772 114.596C125.238 113.785 126.056 113.174 126.423 112.323" fill="#D9DFE6"/>
<path d="M124.039 109.512C123.846 107.665 120.518 103.126 119.772 101.491C119.446 100.78 119.247 99.9361 118.827 99.245C118.648 98.9459 118.188 99.0722 118.155 99.4177C118.028 100.727 117.649 102.109 117.523 103.392C117.383 104.781 117.25 106.17 117.13 107.559C116.983 109.207 116.637 112.024 117.363 113.48C117.589 113.925 117.736 114.217 118.175 114.104C118.634 113.985 119.646 111.759 119.919 111.24C120.392 110.336 120.911 109.266 121.184 108.29" fill="white"/>
<path d="M149.662 103.299C149.762 102.495 150.727 101.691 151.153 101.046C152.225 99.431 152.911 97.6234 154.049 96.0285C154.595 95.2642 155.1 94.4668 155.653 93.7158C155.819 93.4965 156.059 93.131 156.339 92.7323C157.257 91.443 159.234 91.6956 159.813 93.1642C159.98 93.5896 160.139 94.0215 160.299 94.4335C161.817 98.3212 162.596 102.196 163.448 106.256C163.727 107.598 164.306 109.26 164.153 110.642C163.94 112.536 162.516 114.789 160.965 115.852C159.853 116.616 159.287 116.45 158.083 115.899C156.505 115.174 156.119 114.197 155.067 112.902C154.475 112.171 153.576 111.699 153.077 110.921" fill="#D9DFE6"/>
<path d="M154.893 107.552C154.794 105.698 157.449 100.9 157.929 99.1651C158.135 98.4142 158.202 97.5436 158.508 96.7993C158.641 96.4803 159.107 96.5268 159.2 96.8591C159.533 98.1351 160.125 99.4376 160.458 100.687C160.811 102.036 161.17 103.385 161.51 104.741C161.916 106.349 162.701 109.067 162.216 110.622C162.062 111.101 161.969 111.406 161.51 111.366C161.044 111.32 157.829 115.666 157.483 115.194C156.87 114.377 155.326 110.629 154.907 109.712" fill="white"/>
<path d="M120.891 108.695C118.65 111.402 116.755 114.882 115.207 119.135C114.583 120.184 113.983 121.483 113.455 122.95C111.168 124.908 109.902 127.139 109.023 130.074C109.113 129.923 109.249 129.774 109.381 129.63C109.495 129.506 109.605 129.386 109.682 129.27C109.722 130.079 109.601 130.776 109.477 131.49C109.397 131.954 109.315 132.425 109.276 132.938C109.362 132.925 109.449 132.938 109.529 132.971C109.47 133.204 109.408 133.436 109.345 133.669C109.178 134.287 109.01 134.908 108.923 135.55C109.074 135.426 109.267 135.353 109.446 135.285C109.584 135.233 109.713 135.184 109.808 135.118C109.897 136.758 109.198 138.499 108.515 140.199C108.022 141.427 107.538 142.632 107.365 143.764C107.443 143.719 107.522 143.673 107.601 143.626C108.129 143.317 108.68 142.995 109.236 142.873C109.188 143.113 109.208 143.367 109.228 143.617C109.246 143.858 109.265 144.096 109.222 144.315C109.299 144.231 109.4 144.149 109.494 144.072C109.556 144.022 109.614 143.974 109.662 143.93C109.658 144.206 109.78 144.47 109.899 144.725C109.98 144.9 110.059 145.071 110.094 145.239C110.228 145.186 110.396 145.182 110.549 145.18C110.663 145.177 110.77 145.175 110.847 145.153C110.804 145.317 110.839 145.536 110.874 145.746C110.903 145.926 110.931 146.099 110.907 146.222C111.506 146.103 112.091 145.923 112.677 145.744C112.537 146.296 112.318 146.84 112.031 147.346C112.764 147.416 113.544 147.318 114.326 147.221C114.873 147.152 115.421 147.084 115.952 147.073C115.858 147.217 115.777 147.481 115.694 147.754C115.6 148.059 115.503 148.376 115.38 148.548C116.903 148.632 118.525 148.719 120.128 148.68C123.009 149.523 126.26 149.186 129.577 148.75L125.464 149.386C127.714 150.894 130.803 152.556 133.372 153.141C133.351 152.957 133.353 152.79 133.355 152.627C133.36 152.272 133.364 151.941 133.126 151.526C133.271 151.736 133.461 151.904 133.648 152.071C133.788 152.195 133.926 152.318 134.045 152.456C134.045 152.341 134.064 152.199 134.085 152.049C134.111 151.86 134.139 151.66 134.131 151.486C134.242 151.56 134.382 151.608 134.534 151.659C134.775 151.741 135.045 151.833 135.269 152.057C135.269 152.011 135.294 151.912 135.325 151.786C135.388 151.53 135.478 151.168 135.443 150.928C135.941 151.118 136.419 151.365 136.894 151.611C137.562 151.957 138.226 152.3 138.937 152.483C138.923 152.324 138.973 152.095 139.021 151.876C139.063 151.683 139.103 151.497 139.097 151.373C139.657 151.602 140.227 151.78 140.787 151.955C141.299 152.115 141.802 152.272 142.279 152.463C142.339 152.218 142.432 151.976 142.525 151.733C142.68 151.33 142.836 150.923 142.845 150.496C143.862 150.452 144.626 150.625 145.318 150.782C146.404 151.028 147.313 151.235 148.749 150.496C150.37 149.665 152.031 148.785 153.677 147.912C154.441 147.507 155.202 147.104 155.955 146.708C159.674 146.339 163.515 145.695 166.356 144.215C166.462 144.202 166.568 144.189 166.674 144.175L166.814 144.158C167.645 144.053 168.474 143.949 169.298 143.87C169.248 143.692 169.276 143.467 169.303 143.253C169.326 143.066 169.348 142.887 169.317 142.754C169.682 142.739 170.06 142.754 170.441 142.769C171.291 142.802 172.156 142.837 172.919 142.547C172.915 142.386 172.979 142.201 173.037 142.035C173.081 141.907 173.122 141.79 173.125 141.704C173.638 141.929 174.243 142.116 174.736 142.195C174.96 141.097 174.527 140.014 174.116 138.988C173.781 138.152 173.462 137.353 173.524 136.613C173.87 136.779 174.195 136.979 174.52 137.179C174.82 137.364 175.122 137.55 175.441 137.71C175.455 136.593 175.228 135.324 174.936 134.267C174.8 133.774 174.497 133.23 174.189 132.675C173.712 131.818 173.22 130.933 173.305 130.167C173.385 130.185 173.536 130.184 173.694 130.182C173.876 130.18 174.067 130.178 174.17 130.207C173.638 129.03 172.786 127.867 171.834 126.99C171.994 127.045 172.188 127.057 172.384 127.07C172.571 127.082 172.759 127.094 172.919 127.143C172.393 126.731 172.113 126.066 172.24 125.409C171.181 124.844 170.116 123.893 169.411 122.95C169.491 122.944 169.599 122.915 169.718 122.882C169.885 122.836 170.075 122.784 170.243 122.784C169.786 121.59 168.244 120.711 166.895 119.996C166.346 118.967 165.796 118.032 165.277 117.228C164.881 116.615 164.497 116.004 164.116 115.398C162.284 112.482 160.516 109.667 157.689 107.153C152.776 102.78 150.16 102.202 143.59 102.202L143.354 102.202C135.477 102.202 126.256 102.201 120.891 108.695Z" fill="#D9DFE6"/>
<path d="M130.769 124.385C130.876 125.535 130.024 126.558 128.872 126.665C127.721 126.771 126.696 125.92 126.589 124.771C126.483 123.621 127.335 122.597 128.486 122.491C129.638 122.385 130.663 123.235 130.769 124.385Z" fill="#A0AEC0"/>
<path d="M153.303 122.052C153.409 123.202 152.557 124.226 151.405 124.332C150.254 124.438 149.229 123.588 149.122 122.438C149.016 121.288 149.868 120.265 151.019 120.159C152.171 120.052 153.196 120.903 153.303 122.052Z" fill="#A0AEC0"/>
<path d="M137.978 124.339C139.189 123.794 140.787 123.548 142.118 123.707C142.531 123.754 142.883 123.714 143.07 124.119C143.23 124.472 143.096 124.99 142.99 125.316C142.657 126.346 141.912 127.489 140.76 127.548C139.781 127.595 138.756 127.09 138.037 126.459C137.745 126.199 136.467 124.904 137.978 124.332V124.339Z" fill="#A0AEC0"/>
<path d="M137.938 133.224C138.783 133.144 139.402 133.151 139.974 132.599C140.607 131.988 141.046 131.204 141.119 130.413C141.226 129.203 140.96 127.954 140.853 126.751C140.886 128.034 141.612 129.276 142.011 130.466C142.224 131.104 142.377 131.635 142.93 132.127C143.576 132.699 144.94 132.891 145.506 132.234" stroke="#A0AEC0" stroke-width="0.61231" stroke-linecap="round" stroke-linejoin="round"/>
<path d="M146.213 137.424C146.565 140.494 142.112 142.235 139.643 142.069C140.794 142.335 144.176 143.278 145.454 142.527C146.705 141.79 146.346 138.985 146.206 137.424H146.213Z" fill="#A0AEC0"/>
<path d="M138.684 121.494C137.845 120.657 135.928 117.141 135.948 115.899C135.928 115.965 135.948 116.078 135.948 116.145C135.942 116.098 135.948 116.052 135.955 116.005C136.022 116.018 136.068 116.058 136.095 116.125C136.128 115.932 136.115 115.713 136.108 115.5C136.168 115.653 136.308 115.792 136.368 115.879C136.408 115.234 136.028 114.483 135.835 113.865C135.476 112.735 135.183 111.632 135.13 110.443C135.09 109.546 135.156 108.662 135.189 107.784C135.536 108.137 135.569 108.708 136.055 108.967C136.075 108.216 136.081 107.465 136.108 106.715C136.121 106.236 135.935 105.485 136.241 105.08C137.3 105.684 137.592 107.765 137.885 108.834C138.052 109.439 138.158 110.004 138.271 110.596C138.298 110.29 138.511 109.997 138.704 109.791C139.157 111.021 138.917 112.696 138.877 113.978C138.97 113.779 139.09 113.599 139.263 113.473C139.383 114.031 139.19 114.689 139.39 115.208C139.456 115.121 139.596 115.068 139.649 114.995C139.796 116.882 139.297 120.438 138.671 121.494H138.684Z" fill="white"/>
<path d="M124.04 127.941C121.165 125.508 112.738 126.392 109.11 126.797C104.723 127.283 100.27 129.117 95.8633 129.05" stroke="white" stroke-width="2" stroke-linecap="round" stroke-linejoin="round"/>
<path d="M117.604 131.489C110.076 131.29 104.511 137.191 97.6348 138.799" stroke="white" stroke-width="2" stroke-linecap="round" stroke-linejoin="round"/>
<path d="M121.858 134.081C115.201 137.969 106.328 141.311 101.223 147.153" stroke="white" stroke-width="2" stroke-linecap="round" stroke-linejoin="round"/>
<path d="M121.158 137.424C116.511 140.966 112.005 144.847 107.625 148.721" stroke="white" stroke-width="2" stroke-linecap="round" stroke-linejoin="round"/>
<path d="M159.041 125.502C161.278 122.471 169.685 121.388 173.299 120.943C177.679 120.405 182.439 121.155 186.712 120.079" stroke="white" stroke-width="2" stroke-linecap="round" stroke-linejoin="round"/>
<path d="M166.117 127.462C173.393 125.528 180.176 129.987 187.238 129.961" stroke="white" stroke-width="2" stroke-linecap="round" stroke-linejoin="round"/>
<path d="M162.582 130.964C169.964 133.211 179.37 134.413 185.687 138.919" stroke="white" stroke-width="2" stroke-linecap="round" stroke-linejoin="round"/>
<path d="M164.041 134.054C169.38 136.434 174.665 139.165 179.824 141.923" stroke="white" stroke-width="2" stroke-linecap="round" stroke-linejoin="round"/>
<path d="M201.273 68.9212C202.605 71.7788 204.608 74.2776 206.199 76.989C208.356 80.6706 210.14 85.1763 212.862 88.4592C213.794 89.5823 214.906 90.5459 216.018 91.4298C216.224 89.908 215.325 87.4225 214.866 85.9339C213.408 81.2023 210.746 75.5868 207.644 71.7523C209.075 75.7197 212.203 79.7269 214.4 83.3288C215.938 85.8542 216.67 89.0374 218.913 91.0909C219.02 86.12 217.762 80.9963 214.813 76.8561C213.016 74.3307 211.012 71.739 209.108 69.2203C207.271 66.788 206.825 67.2333 203.483 67.2333" fill="#D9DFE6"/>
<path d="M198.909 49.9547C201.386 51.7357 202.051 53.4237 203.436 56.1351C205.473 60.1158 207.609 64.0766 210.066 67.818C211.943 70.6756 213.853 73.7591 215.764 76.4838C212.156 77.2746 210.498 74.3041 207.749 72.2705C208.501 73.8123 210.904 76.3044 210.645 78.0987C209.327 78.4642 207.796 76.012 206.93 75.2544C207.037 76.5835 207.43 77.8993 207.356 79.2417C202.138 80.2452 199.455 69.6921 197.744 66.6351C196.879 65.08 196.227 63.6047 195.634 61.9167C195.262 60.8667 192.373 55.4373 192.672 54.5867C193.052 53.53 193.604 53.869 194.682 53.2376C195.974 52.48 196.666 50.9648 198.909 49.9547Z" fill="white"/>
<path d="M151.201 65.5586C150.749 63.8639 152.1 62.2557 153.851 62.3687C157.405 62.6013 161.333 62.1294 164.461 61.9965C169.094 61.8038 173.707 61.7307 178.347 61.7307C182.181 61.7307 186.008 61.7307 189.843 61.7307C196.2 61.7307 202.557 61.9168 208.907 61.8969C210.944 61.8969 212.981 61.8969 215.011 61.8969C215.73 61.8969 217.434 61.6044 218.12 62.063C219.098 62.7209 219.078 63.8374 218.878 65.1133C218.559 67.1601 217.647 66.9209 215.55 66.9741C207.383 67.1801 199.222 67.4658 191.041 67.1469C178.566 66.6617 166.092 67.6652 153.638 67.5057C152.506 67.4924 151.521 66.7215 151.228 65.6317C151.221 65.5984 151.215 65.5719 151.201 65.5386V65.5586Z" fill="#C6CED9"/>
<path d="M164.348 27.1804C160.62 25.3263 160.773 31.0548 160.993 33.1813C161.519 38.1389 166.758 44.2263 170.279 47.6687C169.327 42.8041 166.179 38.2519 165.247 33.507" fill="#C6CED9"/>
<path d="M175.824 6.61895C158.79 8.67243 158.937 52.9917 181.795 60.5411C185.396 61.7307 191.62 60.7471 195.388 60.0161C199.728 59.1721 202.856 57.5506 204.587 52.799C206.371 47.8879 204.401 39.9731 203.143 35.1085C201.871 30.1908 196.326 26.1636 193.185 22.143C189.044 16.8531 185.29 5.47591 175.824 6.61895Z" fill="#D9DFE6"/>
<path d="M180.776 58.6072C177.002 56.8262 178.06 64.5484 179.012 66.4889C179.231 66.861 179.251 66.9408 179.551 66.6484C179.91 65.8044 179.138 62.8405 180.277 61.5512C180.39 62.9468 180.05 66.6816 180.749 66.5288C182.094 65.9705 181.375 62.8538 181.927 61.518C182.333 64.2693 181.867 65.2196 182.606 66.336C182.759 66.5686 183.099 66.5288 183.199 66.2696C184.157 63.731 183.924 58.3414 180.782 58.6072" fill="#A0AEC0"/>
<path d="M189.137 58.9262C185.363 57.1452 186.421 64.8674 187.373 66.8079C187.593 67.18 187.613 67.2598 187.912 66.9674C188.272 66.1234 187.5 63.1594 188.638 61.8702C188.751 63.2658 188.412 67.0006 189.11 66.8477C190.455 66.2895 189.736 63.1727 190.289 61.837C190.695 64.5882 190.229 65.5386 190.968 66.6484C191.121 66.881 191.46 66.8411 191.56 66.5819C192.519 64.0433 192.286 58.6538 189.144 58.9196" fill="#A0AEC0"/>
<path d="M166.086 41.1959C166.232 40.2124 166.079 39.2089 166.299 38.2121C166.845 39.1159 167.224 40.3652 168.143 40.9434C168.209 40.7839 168.282 40.6244 168.362 40.4649C168.881 40.764 169.221 41.3288 169.787 41.5481C170.133 40.8636 170.153 40.0529 170.126 39.282C170.752 40.2655 171.364 41.3687 172.23 42.1728C172.596 41.8405 172.716 41.3488 172.609 40.8171C173.474 41.4418 174.12 42.8839 175.378 42.8905C175.638 42.2592 175.545 41.4285 175.811 40.8105C176.403 41.7475 177.389 42.2592 178.474 42.2858C178.886 41.5415 178.8 40.6178 178.833 39.807C179.692 40.4915 180.943 41.3621 182.108 41.5415C182.374 40.6776 182.507 39.7871 182.474 38.87C183.153 39.5079 184.158 39.9266 185.11 39.7405C185.11 38.9431 185.044 38.1057 185.157 37.3282C186.162 37.1421 187.227 37.8266 188.332 37.7269C188.392 36.6437 187.879 35.401 188.099 34.4108C189.597 35.082 191.381 35.2814 193.018 35.2215C193.065 34.5636 193.005 33.8725 193.091 33.2279C193.604 33.3608 194.309 33.7329 194.929 33.5867C195.168 32.7295 195.102 31.8522 195.088 30.975C195.9 31.1678 198.277 32.2776 198.969 31.6662C199.475 31.2143 199.282 30.0845 199.362 29.5329C199.468 28.8152 199.675 28.1972 199.661 27.4994C199.608 25.1535 198.49 24.7681 197.458 22.7212C196.18 20.1959 192.792 16.7535 190.901 14.5738C190.162 13.7231 189.45 12.8459 188.711 11.9886C186.255 9.61617 183.413 7.6225 180.164 6.8649C178.014 6.69212 175.784 7.01775 173.601 7.1706C166.419 9.85541 163.01 20.8871 163.922 32.3374L163.942 32.3108C163.942 32.3507 163.929 32.3905 163.929 32.4371C164.109 34.6168 164.448 36.8165 164.941 38.9697C164.947 38.9497 164.961 38.9364 164.967 38.9165C165.174 39.7605 165.46 40.5978 166.092 41.2092L166.086 41.1959Z" fill="white"/>
<path d="M171.869 8.38006C171.71 5.1769 176.09 5.05728 178.027 3.48228C179.225 2.50538 180.862 1.16297 181.834 0C181.954 1.68797 181.661 3.35601 180.263 4.44589C181.182 4.26646 181.994 3.66835 182.873 3.54209C183.059 4.4326 182.706 5.26329 181.774 5.41614C182.547 5.48259 183.332 5.41614 184.098 5.48924C183.851 6.95127 181.348 8.65253 180.044 8.97152C178.28 9.39684 176.17 9.09778 174.366 9.11772C174.505 9.41677 174.758 9.60949 175.105 9.70253" fill="white"/>
<path d="M185.576 20.0098C185.576 21.9304 184.018 23.4854 182.095 23.4854C180.171 23.4854 178.613 21.9304 178.613 20.0098C178.613 18.0892 180.171 16.5342 182.095 16.5342C184.018 16.5342 185.576 18.0892 185.576 20.0098Z" fill="#D9DFE6"/>
<path d="M180.039 15.5705C180.572 16.481 180.265 17.6439 179.353 18.1756C178.441 18.7072 177.277 18.4015 176.744 17.4911C176.211 16.5806 176.518 15.4177 177.43 14.886C178.342 14.3544 179.506 14.6601 180.039 15.5705Z" fill="#A0AEC0"/>
<path d="M168.796 18.9466C169.721 18.2554 171.724 18.0029 172.723 18.7804C172.61 19.2323 171.085 21.7311 170.573 21.8174C169.967 21.9105 168.383 19.9833 168.057 19.3918" fill="#C6CED9"/>
<path d="M185.523 48.0475C187.48 51.2905 189.644 54.7462 192.067 57.7101C193.178 59.0658 195.235 61.4649 196.933 61.9965C197.126 61.106 196.094 59.1589 195.761 58.3481C198.264 61.0861 202.591 66.3826 206.804 65.7845C206.824 64.8607 204.661 62.8737 203.762 62.4484C205.546 62.9136 207.337 64.7145 209.161 65.4522C210.399 65.9506 211.837 66.0835 213.121 65.9041C213.468 63.6778 210.905 62.3155 210.139 60.3883C211.284 61.4183 212.868 62.7342 213.441 60.9731C214.413 57.9693 210.066 55.2645 210.053 52.613C204.541 52.8854 198.124 49.9149 193.738 46.7383" fill="#A0AEC0"/>
<path d="M187.587 22.6016C185.024 24.0836 182.814 26.157 181.489 29.081C180.265 31.7858 180.072 34.6899 180.165 37.6339C180.271 40.8171 181.536 43.894 182.867 46.7649C183.6 48.3465 185.144 48.7386 186.515 49.9083C186.502 49.6026 186.542 49.2371 186.489 48.9446C186.449 50.5927 188.785 52.8323 189.996 53.7627C189.93 52.9918 189.517 52.2409 189.391 51.4367C190.283 52.5864 191.514 54.1814 192.586 54.9124C192.393 54.0551 191.88 53.1779 191.827 52.3538C193.784 54.2478 195.801 55.9757 197.845 57.7234C197.838 57.0124 197.725 56.2947 197.592 55.5969C199.682 57.9428 202.404 59.6507 205.16 61.0861C205.027 60.5212 204.741 60.0228 204.461 59.4978C205.034 60.6608 206.425 62.1361 207.65 62.5681C207.61 62.1959 207.816 62.0431 207.849 61.7241C208.408 61.6776 208.994 61.6909 209.553 61.6909C209.607 60.9532 209.474 60.2222 209.241 59.5443C209.973 60.9266 210.705 61.4915 212.209 61.2057C212.436 57.1054 211.55 52.1079 210.645 48.1605C209.201 41.8738 206.192 35.6203 202.79 30.2108C200.74 26.9478 194.197 19.3785 187.587 22.6016Z" fill="#C6CED9"/>
</g>
<defs>
<clipPath id="clip0_255_3607">
<rect width="225" height="210" fill="white"/>
</clipPath>
</defs>
</svg>
